<svg width="383" height="246" viewBox="0 0 383 246" fill="none" xmlns="http://www.w3.org/2000/svg">
<g filter="url(#filter0_d_1516_266)">
<rect x="24" y="8" width="335" height="197.593" rx="6" fill="url(#paint0_linear_1516_266)"/>
<mask id="mask0_1516_266" style="mask-type:alpha" maskUnits="userSpaceOnUse" x="24" y="8" width="335" height="198">
<rect x="24" y="8" width="335" height="197.593" rx="6" fill="url(#paint1_linear_1516_266)"/>
</mask>
<g mask="url(#mask0_1516_266)">
<path d="M181.848 145.974C87.0816 88.4934 28.6851 120.703 4.67752 152.955C3.93349 153.954 3.55957 155.161 3.55957 156.407V223.441C3.55957 226.754 6.24588 229.441 9.55958 229.441H374.577C377.89 229.441 380.577 226.754 380.577 223.441V175.541C380.577 170.502 374.445 167.332 369.859 169.422C331.346 186.974 244.348 183.884 181.848 145.974Z" fill="url(#paint2_linear_1516_266)"/>
</g>
<g clip-path="url(#clip0_1516_266)">
<path d="M64.9003 30.7661L62.5918 44.3132H66.2839L68.5943 30.7661H64.9003Z" fill="white"/>
<path d="M59.4952 30.7812L55.8791 40.02L55.4935 38.625C54.7804 36.9442 52.7558 34.5303 50.3789 33.009L53.6855 44.3066L57.5922 44.2999L63.4066 30.7784L59.4952 30.7812Z" fill="white"/>
<path d="M54.0923 31.7508C53.8777 30.9256 53.2557 30.6796 52.4837 30.6502H46.7594L46.7119 30.9199C51.1665 32.0006 54.1141 34.6044 55.3372 37.7353L54.0923 31.7508Z" fill="white"/>
<path d="M76.0767 33.3632C77.2846 33.3442 78.1601 33.6082 78.8401 33.8817L79.1734 34.0384L79.6729 31.1022C78.9417 30.8278 77.7955 30.5334 76.3654 30.5334C72.717 30.5334 70.1454 32.3709 70.1255 35.0042C70.1017 36.9499 71.9573 38.0363 73.3589 38.6849C74.7976 39.3496 75.28 39.7722 75.2733 40.3657C75.2619 41.2725 74.1262 41.6885 73.0655 41.6885C71.5869 41.6885 70.8016 41.4843 69.5889 40.9791L69.1132 40.7626L68.5938 43.7947C69.4579 44.1736 71.0523 44.4993 72.7075 44.5164C76.5885 44.5164 79.1107 42.7008 79.1373 39.8871C79.1534 38.3477 78.1687 37.1731 76.0349 36.2092C74.7434 35.5806 73.9534 35.1627 73.961 34.5284C73.961 33.9653 74.6314 33.3632 76.0767 33.3632Z" fill="white"/>
<path d="M89.148 30.7812H86.2954C85.4094 30.7812 84.7504 31.0225 84.361 31.9056L78.8789 44.3208H82.7562C82.7562 44.3208 83.3886 42.6514 83.532 42.2858C83.9565 42.2858 87.7236 42.2915 88.2601 42.2915C88.3703 42.7644 88.7102 44.3208 88.7102 44.3208H92.1355L89.148 30.7812ZM84.5946 39.5129C84.8985 38.7352 86.0656 35.7268 86.0656 35.7268C86.0456 35.7639 86.3666 34.9434 86.5575 34.4335L86.8063 35.6015C86.8063 35.6015 87.5137 38.8359 87.6619 39.5129H84.5946Z" fill="white"/>
</g>
<circle cx="51.8221" cy="98.2792" r="5.11017" fill="white"/>
<circle cx="67.7205" cy="98.2792" r="5.11017" fill="white"/>
<circle cx="83.619" cy="98.2792" r="5.11017" fill="white"/>
<circle cx="99.5174" cy="98.2792" r="5.11017" fill="white"/>
<circle cx="127.907" cy="98.2792" r="5.11017" fill="white"/>
<circle cx="143.805" cy="98.2792" r="5.11017" fill="white"/>
<circle cx="159.704" cy="98.2792" r="5.11017" fill="white"/>
<circle cx="175.602" cy="98.2792" r="5.11017" fill="white"/>
<circle cx="203.992" cy="98.2792" r="5.11017" fill="white"/>
<circle cx="219.89" cy="98.2792" r="5.11017" fill="white"/>
<circle cx="235.789" cy="98.2792" r="5.11017" fill="white"/>
<circle cx="251.687" cy="98.2792" r="5.11017" fill="white"/>
</g>
<defs>
<filter id="filter0_d_1516_266" x="0" y="0" width="383" height="245.593" filterUnits="userSpaceOnUse" color-interpolation-filters="sRGB">
<feFlood flood-opacity="0" result="BackgroundImageFix"/>
<feColorMatrix in="SourceAlpha" type="matrix" values="0 0 0 0 0 0 0 0 0 0 0 0 0 0 0 0 0 0 127 0" result="hardAlpha"/>
<feOffset dy="16"/>
<feGaussianBlur stdDeviation="12"/>
<feComposite in2="hardAlpha" operator="out"/>
<feColorMatrix type="matrix" values="0 0 0 0 0 0 0 0 0 0.177333 0 0 0 0 0.633333 0 0 0 0.2 0"/>
<feBlend mode="normal" in2="BackgroundImageFix" result="effect1_dropShadow_1516_266"/>
<feBlend mode="normal" in="SourceGraphic" in2="effect1_dropShadow_1516_266" result="shape"/>
</filter>
<linearGradient id="paint0_linear_1516_266" x1="24" y1="8" x2="357.197" y2="208.589" gradientUnits="userSpaceOnUse">
<stop stop-color="#2F64ED"/>
<stop offset="1" stop-color="#6171FF"/>
</linearGradient>
<linearGradient id="paint1_linear_1516_266" x1="24" y1="8" x2="357.197" y2="208.589" gradientUnits="userSpaceOnUse">
<stop stop-color="#2F64ED"/>
<stop offset="1" stop-color="#6FB0FC"/>
</linearGradient>
<linearGradient id="paint2_linear_1516_266" x1="381" y1="202" x2="137.477" y2="-110.091" gradientUnits="userSpaceOnUse">
<stop stop-color="#3C72FF"/>
<stop offset="1" stop-color="#2842CE"/>
</linearGradient>
<clipPath id="clip0_1516_266">
<rect width="45.4237" height="45.4237" fill="white" transform="translate(46.7119 14.8135)"/>
</clipPath>
</defs>
</svg>
